<svg width="20" height="21" viewBox="0 0 20 21" fill="none" xmlns="http://www.w3.org/2000/svg">
<path d="M6.00001 1C6.00001 0.447715 5.55229 0 5.00001 0C4.44772 0 4.00001 0.447715 4.00001 1V1.06574C4.00001 1.10681 3.97948 1.14517 3.94531 1.16795C3.35474 1.56166 3.00001 2.22448 3.00001 2.93426V3C3.00001 3.55228 3.44772 4 4.00001 4C4.55229 4 5.00001 3.55228 5.00001 3V2.93426C5.00001 2.89319 5.02054 2.85483 5.05471 2.83205C5.64528 2.43834 6.00001 1.77552 6.00001 1.06574V1Z" fill="#0085FF"/>
<path d="M10 1C10 0.447715 9.55229 0 9.00001 0C8.44772 0 8.00001 0.447715 8.00001 1V1.06574C8.00001 1.10681 7.97948 1.14517 7.94531 1.16795C7.35474 1.56166 7.00001 2.22448 7.00001 2.93426V3C7.00001 3.55228 7.44772 4 8.00001 4C8.55229 4 9.00001 3.55228 9.00001 3V2.93426C9.00001 2.89319 9.02054 2.85483 9.05471 2.83205C9.64528 2.43834 10 1.77552 10 1.06574V1Z" fill="#0085FF"/>
<path d="M14 1C14 0.447715 13.5523 0 13 0C12.4477 0 12 0.447715 12 1V1.06574C12 1.10681 11.9795 1.14517 11.9453 1.16795C11.3547 1.56166 11 2.22448 11 2.93426V3C11 3.55228 11.4477 4 12 4C12.5523 4 13 3.55228 13 3V2.93426C13 2.89319 13.0205 2.85483 13.0547 2.83205C13.6453 2.43834 14 1.77552 14 1.06574V1Z" fill="#0085FF"/>
<path fill-rule="evenodd" clip-rule="evenodd" d="M4.16147 6C3.63432 5.99998 3.17955 5.99997 2.80498 6.03057C2.40964 6.06287 2.01642 6.13419 1.63804 6.32698C1.07355 6.6146 0.61461 7.07354 0.32699 7.63803C0.134196 8.01641 0.0628796 8.40963 0.0305785 8.80497C-2.52202e-05 9.17954 -9.72292e-06 9.63431 8.15847e-06 10.1615L4.46298e-06 13.0874C-6.32479e-05 13.9329 -0.000105329 14.4579 0.059895 14.9137C0.473433 18.0548 2.94519 20.5266 6.08633 20.9401C6.54207 21.0001 7.06712 21.0001 7.91254 21H8.08748C8.93289 21.0001 9.45795 21.0001 9.91369 20.9401C12.6826 20.5756 14.9312 18.6119 15.7086 16H16C18.2091 16 20 14.2091 20 12C20 9.79086 18.2091 8 16 8H15.8217C15.7824 7.87793 15.7337 7.75713 15.673 7.63803C15.3854 7.07354 14.9265 6.6146 14.362 6.32698C13.9836 6.13419 13.5904 6.06287 13.195 6.03057C12.8205 5.99997 12.3657 5.99998 11.8386 6H4.16147ZM16 14H15.9957C16.0001 13.7398 16 13.4418 16 13.0876L16 10C17.1045 10 18 10.8954 18 12C18 13.1046 17.1046 14 16 14Z" fill="#0085FF"/>
</svg>
